<?xml version="1.0" standalone="no"?><!DOCTYPE svg PUBLIC "-//W3C//DTD SVG 1.1//EN" "http://www.w3.org/Graphics/SVG/1.1/DTD/svg11.dtd"><svg t="1591879811699" class="icon" viewBox="0 0 1024 1024" version="1.1" xmlns="http://www.w3.org/2000/svg" p-id="2129" xmlns:xlink="http://www.w3.org/1999/xlink" width="128" height="128"><defs><style type="text/css"></style></defs><path d="M566.19199999 51.944a76.944 76.944 0 0 0-103.39199998 0L44.72 448.92800005a38.56800001 38.56800001 0 0 0 51.648 57.28799994l6.648-6.31199998V914.23999999a77.136 77.136 0 0 0 77.136 77.23200001h224.47199999v-232.22399999a54.31200001 54.31200001 0 0 1 54.33600001-54.38400001h105.624a54.31200001 54.31200001 0 0 1 54.336 54.38400001v232.22399999h229.8a77.136 77.136 0 0 0 77.16-77.23200001V504.968c17.136 15.504 41.448 14.32800001 55.70399999-1.56000003a38.56800001 38.56800001 0 0 0-2.78399999-54.47999992L566.19199999 51.968z" fill="#ff7300" p-id="2130"></path></svg>