<?xml version="1.0" standalone="no"?><!DOCTYPE svg PUBLIC "-//W3C//DTD SVG 1.1//EN" "http://www.w3.org/Graphics/SVG/1.1/DTD/svg11.dtd"><svg t="1591880081337" class="icon" viewBox="0 0 1024 1024" version="1.1" xmlns="http://www.w3.org/2000/svg" p-id="6820" xmlns:xlink="http://www.w3.org/1999/xlink" width="128" height="128"><defs><style type="text/css"></style></defs><path d="M419.5559375 581.33375c-3.5559375 0-10.666875-5.334375-10.666875-5.334375-48-28.44375-78.2221875-65.776875-99.5559375-126.22125l-1.7775-3.5559375c-1.7775-10.666875 3.5559375-19.55625 12.444375-23.11125 1.7775 0 3.5559375-1.7775 5.3334375-1.7775 7.1109375 0 14.221875 3.555 17.7778125 10.666875l1.7775 3.555c17.7778125 51.5559375 42.6665625 81.778125 83.555625 106.666875 3.5559375 1.7775 8.889375 5.3334375 10.666875 10.666875 3.555 10.666875-1.7775 21.3328125-12.444375 24.88875-1.7784375 0-3.5559375 1.7775-5.334375 1.7775l-1.7765625 1.7784375zM314.665625 414.2225c-8.8884375 0-17.7778125-5.334375-19.55625-14.221875-3.555-10.666875 1.7784375-23.1121875 14.2228125-26.6671875 1.7784375 0 3.5559375-1.7775 7.1109375-1.7775 8.889375 0 17.7778125 5.3325 19.55625 14.221875 1.7775 5.3334375 1.7775 10.666875-1.7784375 16.0003125-1.7775 5.3334375-7.1109375 8.8884375-12.444375 10.6659375-3.555 1.7784375-5.3334375 1.7784375-7.1109375 1.7784375z" fill="#fe8119" p-id="6821"></path><path d="M682.66625 668.444375c92.445-56.8884375 156.4453125-160.0003125 156.4453125-275.555625 0-179.555625-147.5559375-325.333125-327.1115625-325.333125S184.8884375 213.333125 184.8884375 392.88875c0 117.33375 62.221875 218.6671875 156.4453125 275.555625L207.9996875 837.333125c-8.8884375 16.0003125-10.6659375 35.555625-10.6659375 44.445 0 49.7775 26.66625 74.66625 65.7778125 74.66625H760.8875c39.1115625 0 65.7778125-24.88875 65.7778125-74.66625 0-17.7778125-3.555-32.000625-10.6659375-44.445L682.66625 668.444375zM245.33375 392.88875C245.33375 247.11125 364.4440625 128 512 128s266.66625 119.11125 266.66625 264.88875S659.5559375 657.7775 512 657.7775 245.33375 538.66625 245.33375 392.88875z" fill="#fe8119" p-id="6822"></path><path d="M629.33375 695.1115625C591.9996875 709.3334375 552.8890625 718.221875 512 718.221875s-81.778125-8.8884375-117.33375-23.1103125L268.4440625 858.666875c-1.7775 5.3334375-1.7775 7.1109375-1.7775 12.444375 0 12.444375 8.889375 23.11125 23.11125 23.11125H737.778125c14.221875 0 23.1103125-12.444375 23.1103125-23.11125 0-5.3334375 0-8.889375-1.7775-12.444375l-129.778125-163.55625z" fill="#fe8119" p-id="6823"></path></svg>